<?xml version="1.0" encoding="utf-8"?>
<!-- Generator: Adobe Illustrator 17.1.0, SVG Export Plug-In . SVG Version: 6.00 Build 0)  -->
<!DOCTYPE svg PUBLIC "-//W3C//DTD SVG 1.1//EN" "http://www.w3.org/Graphics/SVG/1.1/DTD/svg11.dtd">
<svg version="1.1"
	 id="Layer_1" xmlns:rdf="http://www.w3.org/1999/02/22-rdf-syntax-ns#" xmlns:cc="http://creativecommons.org/ns#" xmlns:sodipodi="http://sodipodi.sourceforge.net/DTD/sodipodi-0.dtd" xmlns:svg="http://www.w3.org/2000/svg" xmlns:dc="http://purl.org/dc/elements/1.1/" xmlns:inkscape="http://www.inkscape.org/namespaces/inkscape" sodipodi:docname="logo-color.svg" inkscape:version="0.48.5 r10040"
	 xmlns="http://www.w3.org/2000/svg" xmlns:xlink="http://www.w3.org/1999/xlink" x="0px" y="0px" viewBox="10 -1 281 60"
	 enable-background="new 10 -1 281 60" xml:space="preserve">
<sodipodi:namedview  id="namedview3121" inkscape:cx="59.894295" inkscape:zoom="1.86" inkscape:cy="40.540501" objecttolerance="10" gridtolerance="10" borderopacity="1" pagecolor="#ffffff" showgrid="false" bordercolor="#666666" guidetolerance="10" inkscape:pageshadow="2" inkscape:window-y="0" inkscape:window-height="916" inkscape:window-x="0" inkscape:pageopacity="0" inkscape:current-layer="g2990" inkscape:window-width="1308" inkscape:window-maximized="0">
	</sodipodi:namedview>
<g>
	<g>
		<g>
			<path fill="#F7F7F7" d="M31.4,59h136.2c5.5,0,10-4.5,10-10V12c0-5.5-4.4-10-10-10H31.4"/>
			<g>
				<path fill="#00AEEF" d="M63.1,39.7h9.5v1.2h-9.5v6.4h10.1v1.1H61.9V32.3H73v1.2h-9.9V39.7z"/>
				<path fill="#00AEEF" d="M80.5,41.7l3.4-4.7h1.4v0.1l-4.1,5.4l4.4,5.8v-0.1h-1.3l-3.7-5l-3.7,5h-1.3l0,0l4.4-5.8L76,37V37h1.1
					L80.5,41.7z"/>
				<path fill="#00AEEF" d="M87.9,53.1V37h1.1v2.7c0.9-1.7,2.7-2.8,4.9-2.8c3.1,0.1,5.5,2.1,5.5,5.8c0,3.8-2.6,5.8-5.8,5.8
					c-1.9,0-3.7-1-4.7-2.8v7.4L87.9,53.1L87.9,53.1z M98.3,42.7c0-3.2-2.1-4.7-4.7-4.7c-2.7,0-4.7,2-4.7,4.7s2,4.7,4.7,4.7
					C96.2,47.5,98.3,45.8,98.3,42.7z"/>
				<path fill="#00AEEF" d="M101.8,42.7c0-3.4,2.6-5.8,5.8-5.8s6.1,1.9,5.6,6.4H103c0.2,2.7,2.2,4.2,4.7,4.2c1.6,0,3.3-0.6,4.1-1.7
					l0.8,0.7c-1.1,1.5-3.1,2.1-4.9,2.1C104.4,48.6,101.8,46.3,101.8,42.7z M112.1,42.3c0-2.8-1.8-4.4-4.7-4.4
					c-2.3,0-4.4,1.6-4.7,4.4H112.1z"/>
				<path fill="#00AEEF" d="M117.3,37l0.1,2c0.7-1.6,2.3-2.1,3.8-2.1c0.9,0,1.6,0.2,2.4,0.7l-0.5,1c-0.6-0.4-1.3-0.5-1.9-0.5
					c-2.1,0-3.8,1.7-3.8,3.8v6.7h-1.2V37H117.3z"/>
				<path fill="#00AEEF" d="M128.9,33.6V37h3.8v1h-3.8v7c0,1.6,0.3,2.6,2.1,2.6c0.6,0,1.2-0.2,1.7-0.4l0.4,1
					c-0.7,0.4-1.5,0.6-2.1,0.6c-2.4,0-3.2-1.5-3.2-3.7v-7h-2.4v-1h2.4v-3.3L128.9,33.6z"/>
				<path fill="#00AEEF" d="M143.4,39.1c-1.2-1-2.2-1.3-3.6-1.3c-1.7,0-3.5,0.7-3.4,2.1c0.1,1.6,2,1.8,3.5,2.1
					c2,0.4,4.7,0.7,4.7,3.3c-0.1,2.5-2.7,3.2-4.7,3.2c-2,0-4-0.7-5-2.2l0.8-0.7c1,1.4,2.7,1.9,4.2,1.9c1.4,0,3.5-0.4,3.6-2.1
					c0.1-1.6-1.8-1.9-3.7-2.2c-2.2-0.4-4.4-0.8-4.4-3s2.2-3.2,4.5-3.2c1.6,0,3.1,0.4,4.2,1.6L143.4,39.1z"/>
			</g>
			<g>
				<path fill="#58595B" d="M71.7,18c-1.1-1.1-2.7-1.6-4.1-1.6c-3.8,0-5.6,2.7-5.6,5.7c0,3,1.9,5.6,5.6,5.6c1.4,0,2.8-0.5,3.9-1.5
					v-3.6H67v-0.9h5.4v4.7c-1.3,1.3-2.9,2.1-4.8,2.1c-4.4,0-6.6-3-6.6-6.5c0-4,2.7-6.7,6.6-6.7c1.6,0,3.4,0.7,4.7,1.9L71.7,18z"/>
				<path fill="#58595B" d="M83.7,32.2V19.4h0.9v2.1c0.7-1.4,2.1-2.2,3.9-2.2C91,19.4,93,21.1,93,24c0,3-2,4.7-4.7,4.7
					c-1.6,0-3-0.7-3.8-2.2v5.8L83.7,32.2L83.7,32.2z M92,23.9c0-2.5-1.6-3.8-3.7-3.8s-3.7,1.6-3.7,3.8s1.6,3.8,3.7,3.8
					C90.4,27.7,92,26.5,92,23.9z"/>
				<path fill="#58595B" d="M94.6,32.2V19.4h0.9v2.1c0.7-1.4,2.1-2.2,3.9-2.2c2.4,0.1,4.4,1.7,4.4,4.7c0,3-2,4.7-4.7,4.7
					c-1.6,0-3-0.7-3.8-2.2v5.8L94.6,32.2L94.6,32.2z M102.8,23.9c0-2.5-1.6-3.8-3.7-3.8s-3.7,1.6-3.7,3.8s1.6,3.8,3.7,3.8
					C101.2,27.7,102.8,26.5,102.8,23.9z"/>
				<path fill="#58595B" d="M111.5,21.1c-1-0.8-1.8-1-2.8-1c-1.4,0-2.7,0.5-2.7,1.6c0.1,1.3,1.6,1.5,2.7,1.6
					c1.6,0.3,3.8,0.6,3.8,2.7c-0.1,2-2.1,2.5-3.7,2.5c-1.6,0-3.2-0.6-4-1.8l0.7-0.6c0.7,1.1,2.1,1.6,3.3,1.6c1.1,0,2.7-0.3,2.8-1.7
					c0.1-1.3-1.5-1.6-3-1.8c-1.7-0.3-3.5-0.7-3.6-2.4c0-1.8,1.7-2.5,3.6-2.5c1.3,0,2.4,0.4,3.4,1.3L111.5,21.1z"/>
				<g>
					<path fill="#58595B" d="M77.3,28.7c-0.4,0-0.8-0.1-1.2-0.2c-0.4-0.1-0.7-0.4-1-0.6c-0.3-0.2-0.5-0.5-0.7-0.9
						c-0.1-0.4-0.2-0.7-0.2-1.1c0-0.4,0.1-0.7,0.3-1.1c0.2-0.4,0.4-0.6,0.8-0.9c0.4-0.2,0.7-0.4,1.2-0.6c0.4-0.1,1-0.2,1.6-0.2
						c0.4,0,1,0.1,1.4,0.1c0.4,0.1,0.9,0.2,1.3,0.4v-0.8c0-0.8-0.2-1.4-0.7-1.9c-0.4-0.4-1.1-0.7-1.8-0.7c-0.4,0-1,0.1-1.4,0.3
						c-0.5,0.2-1,0.4-1.5,0.8l-0.4-0.8c1.2-0.8,2.3-1.2,3.4-1.2s2,0.3,2.7,1c0.7,0.7,1,1.5,1,2.7v4.1c0,0.3,0.1,0.5,0.4,0.5v1
						c-0.2,0-0.4,0.1-0.4,0.1c-0.3,0-0.5-0.1-0.7-0.2c-0.1-0.1-0.2-0.4-0.3-0.6V27c-0.4,0.5-1,1-1.6,1.3
						C78.7,28.5,78,28.7,77.3,28.7z M77.5,27.8c0.6,0,1.2-0.1,1.7-0.4c0.5-0.2,0.9-0.5,1.2-0.9c0.1-0.1,0.1-0.2,0.2-0.4
						s0.1-0.2,0.1-0.4v-1.5c-0.4-0.1-0.8-0.3-1.3-0.4c-0.4-0.1-0.9-0.1-1.3-0.1c-0.8,0-1.5,0.1-2,0.5c-0.5,0.4-0.8,0.8-0.8,1.4
						c0,0.3,0.1,0.5,0.1,0.8c0.1,0.2,0.3,0.4,0.4,0.7c0.2,0.1,0.4,0.3,0.7,0.4C76.9,27.7,77.2,27.8,77.5,27.8z"/>
				</g>
			</g>
			<g>
				<g>
					<g>
						<defs>
							<path id="SVGID_1_" d="M21.5,49c0,5.5,4.4,10,9.9,10h136.2c5.5,0,10-4.5,10-10V12c0-5.5-4.4-10-10-10H31.4
								c-5.5,0-9.9,4.5-9.9,10V49z"/>
						</defs>
						<clipPath id="SVGID_2_">
							<use xlink:href="#SVGID_1_"  overflow="visible"/>
						</clipPath>
						<g clip-path="url(#SVGID_2_)">
							<g>
								<g>
									<defs>
										<path id="SVGID_3_" d="M57.2-8.3h-53l3,48.7c0,10.6,8.6,19.2,19.2,19.2l0,0h30.6h3c-10.6,0-19.2-8.6-19.2-19.2
											c0-1.8,0.4-3.6,1-5.1c1.8-4.8,5.9-8.9,10.1-11.3c-0.4-1.3-0.7-2.7-0.7-4.1c0-7.4,5.9-13.3,13.3-13.3
											c1.4,0,2.7,0.4,3.9,0.7c1.1-2.3,4-5.1,7.6-5.1"/>
									</defs>
									<clipPath id="SVGID_4_">
										<use xlink:href="#SVGID_3_"  overflow="visible"/>
									</clipPath>
									<g clip-path="url(#SVGID_4_)">
										<g>
											
												<radialGradient id="SVGID_5_" cx="-431.3119" cy="-492.5419" r="10.9113" gradientTransform="matrix(1.6994 2.1493 -2.1493 1.6994 -259.6418 1780.3751)" gradientUnits="userSpaceOnUse">
												<stop  offset="0" style="stop-color:#00AEEF"/>
												<stop  offset="1" style="stop-color:#008ED4"/>
											</radialGradient>
											<path fill="url(#SVGID_5_)" d="M69.1,52c-4.4,3.5-10.9,2.7-14.3-1.6L30.4,19.4C26.8,15,27.6,8.5,32,5.1l30.9-24.5
												c4.4-3.5,10.9-2.7,14.3,1.6l24.4,30.9c3.5,4.4,2.7,10.9-1.6,14.3L69.1,52z"/>
											<path fill="#FFFFFF" d="M62.8,55.3c-3.5,0-6.7-1.6-8.9-4.4L29.5,20.1c-1.9-2.4-2.8-5.3-2.4-8.4c0.4-3,1.8-5.7,4.3-7.5
												l30.9-24.4c2-1.6,4.5-2.4,7-2.4c3.5,0,6.7,1.6,8.9,4.4l24.4,30.9c1.8,2.4,2.7,5.3,2.4,8.4c-0.4,3-1.8,5.7-4.3,7.6
												L69.8,52.9C67.8,54.5,65.4,55.3,62.8,55.3z M69.3-20.5c-2,0-4,0.7-5.6,1.9L32.8,5.9C31,7.4,29.7,9.5,29.4,12
												c-0.3,2.4,0.4,4.7,1.8,6.7l24.4,30.9c1.7,2.1,4.4,3.4,7.1,3.4c2,0,4-0.7,5.6-1.9l30.9-24.3c1.8-1.6,3.1-3.6,3.4-6.1
												c0.3-2.4-0.4-4.7-1.8-6.7L76.4-17C74.6-19.1,72-20.5,69.3-20.5z"/>
										</g>
										<g>
											
												<radialGradient id="SVGID_6_" cx="-442.2165" cy="-481.6295" r="10.8991" gradientTransform="matrix(1.6994 2.1493 -2.1493 1.6994 -259.6418 1780.3751)" gradientUnits="userSpaceOnUse">
												<stop  offset="0" style="stop-color:#39B54A"/>
												<stop  offset="1" style="stop-color:#409741"/>
											</radialGradient>
											<path fill="url(#SVGID_6_)" d="M27.1,47c-4.4,3.6-10.9,2.7-14.3-1.6l-24.4-30.9C-15,10.1-14.3,3.7-9.9,0.3l30.9-24.4
												c4.4-3.5,10.9-2.7,14.3,1.6L59.7,8.3c3.5,4.4,2.7,10.9-1.6,14.3L27.1,47z"/>
											<path fill="#FFFFFF" d="M20.8,50.4c-3.5,0-6.7-1.6-8.9-4.4l-24.4-30.9c-3.9-4.9-3-12.1,1.8-15.9l30.9-24.4
												c2-1.6,4.5-2.4,7-2.4c3.5,0,6.7,1.6,8.9,4.4L60.6,7.6c1.8,2.4,2.7,5.3,2.4,8.4c-0.4,3-1.8,5.7-4.3,7.6L27.9,48
												C25.8,49.5,23.4,50.4,20.8,50.4z M27.3-25.3c-2,0-4,0.7-5.6,1.9L-9.2,1c-3.9,3.1-4.6,8.8-1.6,12.7l24.4,30.9
												c1.7,2.1,4.4,3.4,7.1,3.4c2,0,4-0.7,5.6-1.9l30.9-24.4c1.8-1.6,3.1-3.6,3.4-6.1c0.3-2.4-0.4-4.7-1.8-6.7L34.4-21.9
												C32.6-24.1,30-25.3,27.3-25.3z"/>
										</g>
										<g>
											
												<radialGradient id="SVGID_7_" cx="-430.6239" cy="-470.7085" r="10.9007" gradientTransform="matrix(1.6994 2.1493 -2.1493 1.6994 -259.6418 1780.3751)" gradientUnits="userSpaceOnUse">
												<stop  offset="0" style="stop-color:#FFF200"/>
												<stop  offset="1" style="stop-color:#FFC907"/>
											</radialGradient>
											<path fill="url(#SVGID_7_)" d="M23.4,90.5C19,94,12.6,93.3,9.1,88.9L-15.3,58c-3.5-4.4-2.7-10.9,1.6-14.3l30.9-24.4
												c4.4-3.5,10.9-2.7,14.3,1.6l24.4,30.9c3.5,4.4,2.7,10.9-1.6,14.3L23.4,90.5z"/>
											<path fill="#FFFFFF" d="M17.1,93.8c-3.5,0-6.7-1.6-8.9-4.4l-24.4-30.9c-3.9-4.9-3-12.1,1.8-16l30.9-24.4
												c2-1.6,4.5-2.4,7-2.4c3.5,0,6.7,1.6,8.9,4.4l24.5,30.9c1.8,2.4,2.7,5.3,2.4,8.4c-0.4,3-1.8,5.7-4.3,7.6L24.1,91.4
												C22,93.1,19.7,93.8,17.1,93.8z M23.5,18.2c-2,0-4,0.7-5.6,1.9L-13,44.5c-3.9,3.1-4.6,8.8-1.6,12.7L9.9,88.1
												c1.7,2.1,4.4,3.5,7.1,3.5c2,0,4-0.7,5.6-1.9l30.9-24.4c1.8-1.6,3.1-3.6,3.4-6.1c0.3-2.4-0.4-4.7-1.8-6.7L30.7,21.6
												C28.9,19.4,26.3,18.2,23.5,18.2z"/>
										</g>
										<g>
											<g>
												
													<radialGradient id="SVGID_8_" cx="-420.6171" cy="-481.6403" r="10.92" gradientTransform="matrix(1.6994 2.1493 -2.1493 1.6994 -259.6418 1780.3751)" gradientUnits="userSpaceOnUse">
													<stop  offset="0" style="stop-color:#ED1C24"/>
													<stop  offset="1" style="stop-color:#BB1D23"/>
												</radialGradient>
												<path fill="url(#SVGID_8_)" d="M96.4,54.8L84.5,39.7L69.1,52c-4.4,3.5-10.9,2.7-14.3-1.6l-12.7-16L26.8,46.6
													c-4.4,3.6-5.1,9.9-1.6,14.4l24.4,30.9c3.5,4.4,9.9,5.1,14.3,1.6L94.7,69C99.2,65.6,99.9,59.2,96.4,54.8z"/>
												<path fill="#FFFFFF" d="M57.5,96.8L57.5,96.8c-3.5,0-6.7-1.6-8.9-4.4L24.2,61.6c-1.9-2.4-2.7-5.3-2.4-8.3
													c0.4-3,1.8-5.7,4.2-7.6l16.4-12.9l13.3,16.8c1.7,2.1,4.4,3.4,7.1,3.4c2,0,4-0.7,5.6-1.9l16.4-12.9L97.5,54
													c3.9,4.9,3,12.1-1.8,16L64.8,94.4C62.6,96.1,60,96.8,57.5,96.8z M42,36.1L27.5,47.5c-1.8,1.6-3.1,3.6-3.4,6.1
													c-0.3,2.4,0.4,4.7,1.8,6.7l24.4,30.9c1.7,2.1,4.4,3.4,7.1,3.4l0,0c2,0,4-0.7,5.6-1.9l30.9-24.4
													c3.9-3.1,4.6-8.8,1.6-12.7L84.4,41.4L69.8,52.9c-2,1.6-4.5,2.4-7,2.4c-3.5,0-6.7-1.6-8.9-4.4L42,36.1z"/>
											</g>
										</g>
									</g>
								</g>
							</g>
						</g>
						
							<linearGradient id="SVGID_9_" gradientUnits="userSpaceOnUse" x1="-199.4577" y1="-332.5012" x2="-199.4577" y2="-352.4719" gradientTransform="matrix(2.7401 0 0 2.7401 604.8444 969.8317)">
							<stop  offset="0" style="stop-color:#ED1C24"/>
							<stop  offset="0.1632" style="stop-color:#EF3924"/>
							<stop  offset="0.402" style="stop-color:#FFF200"/>
							<stop  offset="0.5901" style="stop-color:#39B54A"/>
							<stop  offset="0.6008" style="stop-color:#37B44B"/>
							<stop  offset="0.7748" style="stop-color:#00B265"/>
							<stop  offset="0.8645" style="stop-color:#00B271"/>
							<stop  offset="0.8698" style="stop-color:#00B179"/>
							<stop  offset="0.9047" style="stop-color:#00B0A2"/>
							<stop  offset="0.9364" style="stop-color:#00AFC2"/>
							<stop  offset="0.9639" style="stop-color:#00AED9"/>
							<stop  offset="0.986" style="stop-color:#00AEE8"/>
							<stop  offset="1" style="stop-color:#00AEEF"/>
						</linearGradient>
						<path clip-path="url(#SVGID_2_)" fill="url(#SVGID_9_)" d="M75.1,2c-3.4,0.3-6,2.8-7,5c-1.3-0.4-2.6-0.7-4.1-0.7
							c-1.5,0-2.8,0.2-4.1,0.7c-0.4,0.1-0.8,0.3-1.2,0.4C58.3,7.6,58,7.8,57.6,8c-4.2,2.2-7,6.7-7,11.7c0,1.5,0.3,2.8,0.7,4.1
							c-3.6,2.1-7.1,5.3-9.2,9.2l0,0c-0.1,0.2-0.2,0.4-0.4,0.7c-0.1,0.1-0.1,0.4-0.2,0.5c-0.1,0.2-0.2,0.4-0.3,0.7
							c-0.1,0.1-0.1,0.2-0.1,0.4c0,0.1-0.1,0.1-0.1,0.2c-0.1,0.1-0.1,0.3-0.1,0.4c-0.1,0.3-0.2,0.7-0.3,1c-0.1,0.3-0.1,0.6-0.2,0.9
							c-0.1,0.9-0.3,1.7-0.3,2.7c0,9.2,6.5,16.9,15.1,18.7h1.4c0-0.4-0.3-0.7-0.7-0.8c-8.4-1.8-14.4-9.3-14.4-17.9
							c0-0.8,0.1-1.6,0.2-2.5c0.1-0.3,0.1-0.5,0.2-0.8s0.1-0.7,0.3-1l0.1-0.1l0.1-0.4l0.1-0.2l0.1-0.2c0.1-0.1,0.1-0.4,0.3-0.7
							l0.2-0.5c0.1-0.2,0.2-0.4,0.3-0.6c1.8-3.4,5-6.7,8.9-8.8c0.4-0.2,0.5-0.7,0.4-1c-0.4-1.4-0.7-2.7-0.7-3.9
							c0-4.6,2.5-8.7,6.6-10.9c0.3-0.1,0.7-0.4,1-0.5s0.7-0.3,1.1-0.4c2.4-0.8,4.7-0.9,7.6,0c0.4,0.1,0.9-0.1,1.1-0.5
							c1-2,3.4-4.3,6.3-4.5c0.4-0.1,0.8-0.4,0.8-0.9h-1.4V2z"/>
					</g>
				</g>
			</g>
		</g>
	</g>
</g>
<g>
	<path fill="#FDFDFE" d="M233.8,1.8c17.5,0,34.9,0,52.4,0c0.8,0,1,0.2,1,1c0,18.2,0,36.3,0,54.5c0,0.8-0.2,1-1,1
		c-34.9,0-69.9,0-104.8,0c-0.8,0-1-0.2-1-1c0-18.2,0-36.3,0-54.5c0-0.8,0.2-1,1-1C198.9,1.8,216.3,1.8,233.8,1.8z M240.2,14.2
		c0.4-0.5,1.1-0.3,1.8-0.6c-1-0.7-1.7-0.2-2.3,0.2c-0.1-0.3-0.4-0.7-0.4-0.3c-0.2,1.6-0.1,3.2-0.1,4.7c0.1,0,0.2,0,0.4,0
		C240.1,17,239.4,15.5,240.2,14.2z M259,14.4c0.3-0.2,0.5-0.5,1-0.6c0.3,0,0.9,0.2,0.8-0.3c-0.1-0.5-0.6-0.3-1-0.2
		c-0.3,0.1-0.7,0.2-0.8,0.6c-0.6-0.5-0.8-0.5-0.8-0.2c0,1.5,0,3.1,0,4.6c0.1,0,0.3,0,0.4,0C259,17.1,258.4,15.7,259,14.4z
		 M193.6,32.4c0,2.8,0,5.6,0,8.4c0,0.5-0.2,1.1,0.7,1.1c0.9,0,0.8-0.6,0.8-1.2c0-1.8,0.1-3.6,0-5.4c-0.1-1.1,0.3-1.3,1.3-1.3
		c1.7,0.1,3.5,0.1,5.2-0.5c2.5-1,3.8-3.1,3.5-5.8c-0.3-2.7-1.9-4.2-4.6-4.7c-1.9-0.3-3.8-0.1-5.7-0.2c-0.9-0.1-1.1,0.3-1.1,1.1
		C193.7,26.8,193.6,29.6,193.6,32.4z M257.5,35.1c1.2,0,2.5-0.1,3.7,0c1.2,0.1,1.6-0.4,1.4-1.5c-0.1-0.5-0.1-1-0.2-1.6
		c-0.5-2.6-2.1-4.2-4.3-4.5c-2.8-0.4-5,0.7-6.2,3.1c-1,2-1.1,4.2-0.7,6.4c0.9,4.4,6.5,6.7,10.3,4.3c0.4-0.3,0.6-0.6,0.4-1
		c-0.2-0.5-0.6-0.3-0.9-0.2c-1.3,0.5-2.7,0.6-4.1,0.5c-2.6-0.2-4.4-2.1-4.4-4.8c0-0.7,0.2-1,0.9-0.9
		C254.8,35.1,256.2,35.1,257.5,35.1z M214,39.7c0.1,0.6,0.2,0.9,0.2,1.2c0.1,0.4,0,0.9,0.7,0.9c0.6-0.1,0.4-0.6,0.4-0.9c0-3,0-6,0-9
		c0-2.5-1.3-4-3.4-4.3c-1-0.1-2-0.2-3,0.1c-0.6,0.2-1.7,0-1.6,0.9c0.2,1.3,1.1,0.4,1.7,0.3c3.1-0.6,4.7,0.5,4.9,3.2
		c0.1,1.2-0.2,1.6-1.5,1.6c-2-0.1-4,0-5.9,1.1c-1.6,0.9-2.2,2.3-1.9,4.2c0.3,1.6,1.3,2.7,3,3.1C210.3,42.5,212.2,41.7,214,39.7z
		 M237.2,34.8c0,2,0,3.9,0,5.9c0,0.5-0.3,1.2,0.7,1.2c1.1,0,0.8-0.7,0.8-1.3c0-2.7-0.1-5.3,0.1-8c0.2-2.7,2-4,5-3.8
		c2.2,0.1,3.1,1.3,3.1,4.1c0,2.7,0,5.4,0,8.1c0,0.6,0.1,0.9,0.8,0.9c0.6,0,0.7-0.4,0.7-0.9c0-3,0.1-6,0-9c-0.1-2.7-1.5-4.2-4-4.5
		c-1.7-0.2-3.4,0-4.8,1.1c-0.3,0.2-0.8,0.7-1-0.1c-0.1-0.6-0.3-0.9-0.9-0.8c-0.7,0.1-0.4,0.7-0.4,1.1
		C237.2,30.8,237.2,32.8,237.2,34.8z M229.1,34C229.1,34,229.1,34,229.1,34c0,1.4-0.1,2.9,0,4.3c0.2,3,1.9,4.2,4.9,3.7
		c0.5-0.1,1.1-0.1,1-0.9c-0.2-0.8-0.8-0.4-1.2-0.3c-2.4,0.2-3.2-0.5-3.3-2.9c0-2.2,0-4.4,0-6.6c0-2.4,0-2.3,2.3-2.4
		c0.6,0,1.8,0.5,1.7-0.6c0-1-1.1-0.5-1.7-0.5c-2.3-0.1-2.3,0-2.4-2.3c0-0.4,0.3-1-0.4-1c-0.6,0-0.5,0.6-0.6,1
		c-0.2,1.3-0.3,2.4-2,2.5c-0.3,0-0.6,0.3-0.5,0.6c0.1,0.3,0.4,0.4,0.6,0.3c1.5-0.3,1.4,0.7,1.4,1.7C229.1,31.7,229.1,32.9,229.1,34z
		 M267.1,30.1c-0.1-0.7-0.1-1-0.2-1.3c0-0.5,0.2-1.1-0.7-1c-0.8,0.1-0.5,0.7-0.5,1.1c0,4,0,8,0,12c0,0.5,0,1,0.7,1
		c0.8,0,0.7-0.5,0.7-1c0-2.1,0-4.3,0-6.4c0-4.3,1.5-5.8,5.7-5.6c0.5,0,0.8,0,0.9-0.6c0-0.7-0.3-0.7-0.8-0.7
		C270.6,27.3,268.5,27.5,267.1,30.1z M219.9,29.7c0-0.3-0.1-0.7-0.1-1c0-0.5,0-1-0.8-0.9c-0.7,0.1-0.5,0.6-0.5,1c0,4,0,8,0,12
		c0,0.4-0.2,1,0.6,1c0.9,0,0.7-0.6,0.7-1.1c0-2.2,0-4.4,0-6.7c0-3.6,1.6-5.2,5.2-5.3c0.5,0,0.8-0.1,0.9-0.7c0-0.6-0.4-0.6-0.8-0.6
		C223,27.3,221.2,27.7,219.9,29.7z M198.9,15.7c1.1,0,1.3,0.7,1.2,1.5c-0.1,1-0.9,0.8-1.5,0.8c-2.3,0-4.1-2-3.9-4.3
		c0.1-1.4,1-2.6,2.2-2.9c1.4-0.4,2.6,0.1,3.4,1.3c1.1-1.1,1.1-1.2-0.3-1.7c-1.2-0.4-2.4-0.4-3.6-0.1c-2.1,0.6-3.3,2.4-3.1,4.4
		c0.2,2.1,1.6,3.5,3.8,3.9c0.8,0.1,1.6,0,2.3-0.1c1.9-0.2,1.9-0.2,2-2.1c0-0.4,0.2-0.8,0.2-1.2C200.7,15.4,199.8,15,198.9,15.7z
		 M219.9,13.1c-1.1,0-2.1-0.1-3.1,0c-1.1,0.1-1.7,0.9-1.8,1.9c-0.1,1,0.5,1.7,1.5,2c0.4,0.1,0.7,0.1,0.7,0.6c0,0.6-0.5,0.5-0.8,0.7
		c-0.3,0.1-0.6,0.2-0.9,0.3c-0.7,0.3-1.3,0.9-1.2,1.7c0.1,0.8,0.7,1.2,1.4,1.4c1,0.3,2,0.2,2.9-0.2c1.6-0.7,1.8-2.3,0.5-3.4
		c-0.3-0.3-0.9-0.7-0.7-0.8c1.1-1.1,1-2.5,1.2-3.9C219.8,13.3,219.8,13.3,219.9,13.1z M248.3,13.1c0.1,0,0.2,0,0.3,0
		c0.4,1.5,0.8,2.9,1.3,4.4c0.1,0.3,0.1,0.8,0.5,0.8c0.5,0,0.5-0.5,0.6-0.9c0.5-1.6,0.9-3.3,1.4-4.9c0.1-0.3,0.3-0.6-0.2-1
		c-0.8,1.6-0.9,3.5-1.7,5.4c-0.5-1.7-0.9-3-1.3-4.3c-0.1-0.4-0.1-1-0.6-1c-0.6,0-0.5,0.7-0.6,1.1c-0.4,1.3-0.8,2.7-1.2,4.2
		c-0.8-1.9-0.8-3.8-1.9-5.2c0.4,2.1,0.9,4.2,1.5,6.3c0,0.1,0.2,0.3,0.3,0.3c0.3,0,0.4-0.3,0.4-0.6C247.4,16.2,247.8,14.7,248.3,13.1
		z M208.1,15.8c0-1.6-1.1-2.7-2.7-2.8c-1.8,0-3.1,1.1-3.2,2.8c0,1.6,1.2,2.8,2.8,2.8C206.8,18.6,208.1,17.4,208.1,15.8z M211.5,18.6
		c1.7,0,3-1.3,3-2.9c0-1.6-1.2-2.7-2.9-2.7c-1.7,0-3,1.3-3,2.8C208.6,17.4,209.9,18.6,211.5,18.6z M222.6,18.3
		c-0.9-2.7-0.3-5.4-0.4-8.1c-0.4,0-0.9,0-1.4,0c-0.3,0-0.6,0.1-0.4,0.6c0.9,2.5,0.3,4.9,0.3,7.5C221.3,18.4,222,18.5,222.6,18.3z
		 M227.5,17.9c-1.7,0-2.3-0.3-2.8-1c-0.4-0.5-0.5-1,0.3-1.2c0.7-0.2,1.4-0.6,2.2-0.9c0.6-0.2,0.6-0.5,0.3-1
		c-0.3-0.4-0.7-0.6-1.2-0.7c-1.3-0.2-2.5,0.3-3,1.3c-0.6,1.1-0.3,2.7,0.7,3.5C224.9,18.8,226.2,18.8,227.5,17.9z M209.7,50.9
		c0.2,0,0.3,0,0.5,0c0.2-0.9,0.1-1.9,0-2.8c-0.1-1.1-0.8-1.5-1.8-1.2c-0.5,0.2-0.9,0.2-1.5,0c-0.7-0.3-1.8-0.2-2,0.4
		c-0.3,1.1-0.1,2.3-0.1,3.5c0.1,0,0.3,0,0.4,0c0-0.8,0.1-1.5,0.1-2.3c0-0.7,0.3-1.3,1.1-1.3c0.8,0.1,0.8,0.8,0.8,1.4
		c0.1,0.7-0.2,1.5,0.4,2.1c0.1-0.8,0.1-1.6,0.1-2.5c0-0.7,0.4-1.1,1.1-1.1c0.7,0,0.8,0.5,0.8,1.1C209.7,49.2,209.7,50,209.7,50.9z
		 M261.9,18.6c0.6-0.5,0.5-0.9,0.5-1.2c0-0.5,0-0.9,0.5-1.1c0.6-0.3,0.7,0.4,1,0.6c0.5,0.5,0.7,1.4,1.9,1.5
		c-0.6-0.8-1.1-1.5-1.6-2.1c-0.5-0.5-0.5-0.9,0.1-1.4c0.4-0.4,1-0.8,1.2-1.6c-1.3,0.6-1.7,1.9-3.1,2.5c0-1.6,0-3,0-4.5
		c-0.1,0-0.2,0-0.3,0C261.9,13.7,261.9,16,261.9,18.6z M254.8,13.2c-1.4,0-2.3,0.9-2.3,2.6c0,1.7,0.9,2.7,2.3,2.7
		c1.3,0,2.2-1,2.3-2.5C257.1,14.4,256.2,13.3,254.8,13.2z M233.7,15.9c0,1.7,0.8,2.7,2.2,2.7c1.4,0,2.3-1,2.3-2.6
		c0-1.6-0.8-2.6-2.2-2.7C234.6,13.2,233.8,14.2,233.7,15.9z M233.4,13.7c-0.4-0.6-1.2-0.1-1.2-0.9c-0.1-1.3,1.1-0.9,1.7-1.3
		c-1.3-0.6-2.1-0.4-2.3,0.8c-0.1,0.6-0.2,1-1,1.3c0.9,0.2,0.9,0.7,0.9,1.4c0,1,0,1.9,0,2.9c0,0.3,0,0.6,0.4,0.5
		c0.3,0,0.3-0.3,0.3-0.5c0-0.9,0-1.7,0-2.6C232.1,14.5,232,13.7,233.4,13.7z M203.6,50.5c-0.5-0.3-0.8,0.1-1.2,0
		c-0.7-0.1-1.4-0.3-1.4-1.1c0-0.8,0.8-0.3,1.2-0.5c0.1,0,0.3,0,0.4,0c0.4-0.1,0.8,0.2,1-0.3c0.2-0.4,0-0.9-0.2-1.2
		c-0.5-0.7-1.2-0.9-2-0.5c-0.8,0.4-1.1,1.1-1.1,1.9c0,0.8,0.1,1.5,0.9,1.9C202,51.1,202.8,51.2,203.6,50.5z M216.3,50.5
		c-0.3-0.2-0.6,0-0.9,0c-0.8,0.1-1.6-0.1-1.6-1.1c0-0.9,0.9-0.3,1.3-0.5c0.1,0,0.2,0,0.3,0c1.1,0,1.4-0.4,0.9-1.4
		c-0.4-0.8-1.5-1.1-2.3-0.6c-0.9,0.6-1.1,2.2-0.5,3.2C214.1,51.1,215.2,51.3,216.3,50.5z M193.6,50.9c0.1,0,0.3,0,0.4,0
		c0.3-1.4,0.1-2.8,0.1-4.1c0-0.6,0.2-0.9,0.8-0.8c0.6,0.1,1.3,0.1,1.5,0.9c0.2,0.9-0.4,1.3-1.3,1.6c1.1,0.3,1.6-0.2,1.8-1
		c0.2-0.8-0.1-1.5-0.9-1.8c-0.7-0.2-1.6-0.6-2.3,0.1c-0.1,0,0,0.2,0,0.3C193.6,47.6,193.6,49.2,193.6,50.9z M217.9,50.9
		c0.7-1.3-0.7-3.5,1.9-4c-0.8,0-1.9-0.2-2.1,0.5C217.5,48.5,217.5,49.7,217.9,50.9z M197.8,50.9c0.1,0,0.2,0,0.4,0
		c0.6-1.3-0.8-3.4,2-3.8c-1-0.5-2.2,0-2.2,0.3C197.7,48.5,197.8,49.7,197.8,50.9z M211.9,47c-0.1,0-0.1,0-0.2,0c0,1.2,0,2.4,0,3.6
		c0.1,0,0.1,0,0.2,0C211.9,49.4,211.9,48.2,211.9,47z"/>
	<path fill="#8E8E8E" d="M193.6,32.4c0-2.8,0-5.6,0-8.4c0-0.8,0.2-1.2,1.1-1.1c1.9,0.1,3.8-0.1,5.7,0.2c2.8,0.4,4.3,2,4.6,4.7
		c0.3,2.6-1,4.8-3.5,5.8c-1.7,0.6-3.4,0.6-5.2,0.5c-1,0-1.4,0.2-1.3,1.3c0.1,1.8,0,3.6,0,5.4c0,0.5,0.2,1.2-0.8,1.2
		c-0.9,0-0.6-0.7-0.7-1.1C193.6,38,193.6,35.2,193.6,32.4z M195,28.5c0,1.2,0,2.4,0,3.5c0,0.5,0.1,0.8,0.7,0.8
		c1.6,0,3.2,0.1,4.8-0.3c2.1-0.6,3.2-2,3.1-4.3c-0.1-2.1-1.3-3.5-3.4-3.9c-1.4-0.3-2.9-0.2-4.3-0.2c-0.7,0-0.9,0.2-0.9,0.9
		C195,26.2,195,27.3,195,28.5z"/>
	<path fill="#919191" d="M257.5,35.1c-1.4,0-2.7,0-4.1,0c-0.7,0-0.9,0.3-0.9,0.9c0.1,2.6,1.8,4.6,4.4,4.8c1.4,0.1,2.8-0.1,4.1-0.5
		c0.3-0.1,0.7-0.4,0.9,0.2c0.1,0.4,0,0.7-0.4,1c-3.9,2.4-9.4,0.1-10.3-4.3c-0.5-2.2-0.3-4.4,0.7-6.4c1.2-2.4,3.4-3.5,6.2-3.1
		c2.2,0.3,3.7,1.9,4.3,4.5c0.1,0.5,0.1,1,0.2,1.6c0.2,1.1-0.2,1.6-1.4,1.5C260,35,258.7,35.1,257.5,35.1z M256.8,33.8
		c1.2,0,2.4,0,3.5,0c0.5,0,0.8-0.1,0.8-0.7c0.2-3.2-2.9-5.3-5.8-4c-1.7,0.8-2.3,2.4-2.6,4.1c-0.1,0.6,0.3,0.6,0.7,0.6
		C254.5,33.8,255.6,33.8,256.8,33.8z"/>
	<path fill="#8E8E8E" d="M214,39.7c-1.8,2-3.7,2.7-6.1,2.2c-1.7-0.4-2.7-1.4-3-3.1c-0.3-1.9,0.3-3.4,1.9-4.2c1.8-1,3.8-1.2,5.9-1.1
		c1.2,0.1,1.6-0.4,1.5-1.6c-0.2-2.7-1.9-3.8-4.9-3.2c-0.6,0.1-1.6,1-1.7-0.3c-0.1-0.9,1-0.7,1.6-0.9c1-0.3,2-0.2,3-0.1
		c2.1,0.3,3.3,1.8,3.4,4.3c0.1,3,0,6,0,9c0,0.4,0.2,0.8-0.4,0.9c-0.7,0.1-0.6-0.5-0.7-0.9C214.2,40.6,214.1,40.3,214,39.7z
		 M214.1,35.9c-0.2-0.3,0.4-1.1-0.5-1.1c-2,0-4.1-0.1-6,0.9c-1.1,0.6-1.4,1.5-1.3,2.6c0.1,1.1,0.7,1.9,1.8,2.3
		C211.2,41.6,214,39.5,214.1,35.9z"/>
	<path fill="#969696" d="M237.2,34.8c0-2,0-3.9,0-5.9c0-0.4-0.2-0.9,0.4-1.1c0.6-0.1,0.8,0.2,0.9,0.8c0.2,0.8,0.7,0.3,1,0.1
		c1.5-1.1,3.1-1.3,4.8-1.1c2.5,0.2,3.9,1.7,4,4.5c0.1,3,0,6,0,9c0,0.5,0,0.8-0.7,0.9c-0.7,0-0.8-0.4-0.8-0.9c0-2.7,0-5.4,0-8.1
		c0-2.8-0.9-4-3.1-4.1c-3.1-0.2-4.9,1.1-5,3.8c-0.2,2.7,0,5.3-0.1,8c0,0.5,0.3,1.3-0.8,1.3c-1,0-0.7-0.7-0.7-1.2
		C237.2,38.7,237.2,36.7,237.2,34.8z"/>
	<path fill="#919191" d="M229.1,34c0-1.1,0-2.3,0-3.4c0-1,0.1-1.9-1.4-1.7c-0.3,0-0.5,0-0.6-0.3c-0.1-0.4,0.1-0.6,0.5-0.6
		c1.7-0.1,1.8-1.3,2-2.5c0.1-0.4,0-1,0.6-1c0.7,0,0.4,0.7,0.4,1c0.1,2.3,0.1,2.3,2.4,2.3c0.6,0,1.7-0.6,1.7,0.5
		c0,1.2-1.1,0.6-1.7,0.6c-2.3,0.1-2.3,0-2.3,2.4c0,2.2,0,4.4,0,6.6c0,2.4,0.9,3.1,3.3,2.9c0.4,0,1-0.5,1.2,0.3
		c0.1,0.8-0.5,0.8-1,0.9c-3,0.6-4.6-0.6-4.9-3.7C229.1,36.9,229.1,35.4,229.1,34C229.1,34,229.1,34,229.1,34z"/>
	<path fill="#8E8E8E" d="M267.1,30.1c1.4-2.6,3.5-2.8,5.7-2.6c0.5,0,0.9,0.1,0.8,0.7c0,0.6-0.3,0.6-0.9,0.6
		c-4.2-0.1-5.7,1.4-5.7,5.6c0,2.1,0,4.3,0,6.4c0,0.5,0.1,1-0.7,1c-0.7,0-0.7-0.5-0.7-1c0-4,0-8,0-12c0-0.4-0.3-1,0.5-1.1
		c0.9-0.1,0.7,0.6,0.7,1C267,29.1,267,29.4,267.1,30.1z"/>
	<path fill="#8E8E8E" d="M219.9,29.7c1.3-2,3.2-2.4,5.3-2.2c0.4,0,0.8,0.1,0.8,0.6c0,0.6-0.3,0.7-0.9,0.7c-3.6,0.1-5.1,1.7-5.2,5.3
		c0,2.2,0,4.4,0,6.7c0,0.5,0.2,1.1-0.7,1.1c-0.8,0-0.6-0.6-0.6-1c0-4,0-8,0-12c0-0.4-0.3-0.9,0.5-1c0.7-0.1,0.7,0.4,0.8,0.9
		C219.8,29.1,219.8,29.4,219.9,29.7z"/>
	<path fill="#528FF4" d="M198.9,15.7c0.9-0.7,1.8-0.3,2.8-0.5c-0.1,0.5-0.2,0.9-0.2,1.2c-0.1,1.9-0.1,1.9-2,2.1
		c-0.8,0.1-1.6,0.2-2.3,0.1c-2.2-0.3-3.6-1.7-3.8-3.9c-0.2-2,1.1-3.8,3.1-4.4c1.2-0.4,2.4-0.3,3.6,0.1c1.5,0.5,1.5,0.6,0.3,1.7
		c-0.8-1.2-2.1-1.7-3.4-1.3c-1.2,0.3-2.1,1.5-2.2,2.9c-0.2,2.3,1.6,4.4,3.9,4.3c0.6,0,1.4,0.2,1.5-0.8
		C200.2,16.4,200,15.8,198.9,15.7z"/>
	<path fill="#528FF4" d="M219.9,13.1c-0.1,0.2-0.2,0.3-0.2,0.3c-0.2,1.3-0.1,2.8-1.2,3.9c-0.2,0.2,0.4,0.6,0.7,0.8
		c1.3,1.2,1.1,2.7-0.5,3.4c-0.9,0.4-1.9,0.5-2.9,0.2c-0.7-0.2-1.3-0.6-1.4-1.4c-0.1-0.9,0.5-1.4,1.2-1.7c0.3-0.1,0.6-0.2,0.9-0.3
		c0.3-0.1,0.8,0,0.8-0.7c0-0.5-0.4-0.5-0.7-0.6c-1-0.3-1.6-1-1.5-2c0.1-1.1,0.7-1.8,1.8-1.9C217.8,13,218.8,13.1,219.9,13.1z
		 M217.4,21.3c0.9,0,1.7-0.2,1.7-1.2c0-0.9-0.7-1.5-1.7-1.4c-0.8,0-1.8,0.2-1.8,1.3C215.6,21.1,216.6,21.2,217.4,21.3z M216.2,14.7
		c0,1,0.6,1.9,1.4,1.9c0.7,0,1.1-0.4,1.1-1.2c0-1-0.7-2.1-1.5-2C216.4,13.5,216.1,14,216.2,14.7z"/>
	<path fill="#86888A" d="M248.3,13.1c-0.4,1.5-0.9,3.1-1.3,4.6c-0.1,0.3-0.1,0.6-0.4,0.6c-0.1,0-0.3-0.2-0.3-0.3
		c-0.6-2.1-1.1-4.2-1.5-6.3c1.1,1.5,1.1,3.3,1.9,5.2c0.4-1.6,0.8-2.9,1.2-4.2c0.1-0.4,0-1,0.6-1.1c0.6,0,0.5,0.6,0.6,1
		c0.4,1.3,0.8,2.6,1.3,4.3c0.9-1.9,0.9-3.8,1.7-5.4c0.5,0.4,0.3,0.7,0.2,1c-0.4,1.6-0.9,3.3-1.4,4.9c-0.1,0.3-0.1,0.9-0.6,0.9
		c-0.4,0-0.4-0.5-0.5-0.8c-0.4-1.4-0.8-2.9-1.3-4.4C248.4,13.1,248.3,13.1,248.3,13.1z"/>
	<path fill="#F14946" d="M208.1,15.8c0,1.6-1.3,2.8-3,2.8c-1.6,0-2.9-1.2-2.8-2.8c0-1.6,1.4-2.8,3.2-2.8
		C207,13.1,208.2,14.2,208.1,15.8z M205.3,13.5c-0.8,0-1.2,0.2-1.5,0.7c-0.6,1,0,3.2,1,3.7c0.4,0.2,0.8,0.2,1.2,0
		c1-0.6,1-1.5,0.7-2.4C206.6,14.5,206.2,13.7,205.3,13.5z"/>
	<path fill="#E4A527" d="M211.5,18.6c-1.6,0-2.9-1.2-2.9-2.7c0-1.6,1.3-2.8,3-2.8c1.7,0,2.9,1.1,2.9,2.7
		C214.5,17.3,213.2,18.6,211.5,18.6z M209.9,15.5c0,1.3,0.9,2.6,1.9,2.6c1.1-0.1,1.5-0.8,1.5-1.8c0-1.5-0.8-2.8-1.8-2.7
		C210.3,13.6,209.9,14.2,209.9,15.5z"/>
	<path fill="#28A768" d="M222.6,18.3c-0.6,0.2-1.3,0.1-1.9,0c0-2.5,0.7-5-0.3-7.5c-0.2-0.5,0.1-0.6,0.4-0.6c0.5-0.1,1,0,1.4,0
		C222.3,12.9,221.7,15.6,222.6,18.3z"/>
	<path fill="#F14946" d="M227.5,17.9c-1.3,0.9-2.6,0.9-3.6,0c-0.9-0.8-1.2-2.3-0.7-3.5c0.5-1.1,1.7-1.6,3-1.3
		c0.5,0.1,0.9,0.3,1.2,0.7c0.3,0.4,0.4,0.8-0.3,1c-0.7,0.3-1.4,0.6-2.2,0.9c-0.9,0.3-0.7,0.7-0.3,1.2
		C225.3,17.6,225.8,17.8,227.5,17.9z M224.2,15.4c0.6-0.2,1.1-0.4,1.7-0.7c0.2-0.1,0.5-0.1,0.5-0.5c0-0.3-0.2-0.5-0.5-0.7
		C224.9,13.1,224.1,13.9,224.2,15.4z"/>
	<path fill="#528FF4" d="M209.7,50.9c0-0.8,0-1.7,0-2.5c0-0.6-0.1-1.1-0.8-1.1c-0.7,0-1.1,0.4-1.1,1.1c0,0.8,0,1.6-0.1,2.5
		c-0.6-0.6-0.3-1.4-0.4-2.1c-0.1-0.6,0-1.3-0.8-1.4c-0.8-0.1-1.1,0.6-1.1,1.3c0,0.8-0.1,1.5-0.1,2.3c-0.1,0-0.3,0-0.4,0
		c0-1.2-0.2-2.4,0.1-3.5c0.2-0.6,1.3-0.7,2-0.4c0.5,0.2,1,0.2,1.5,0c1.1-0.3,1.7,0.1,1.8,1.2c0.1,0.9,0.1,1.9,0,2.8
		C210,50.9,209.9,50.9,209.7,50.9z"/>
	<path fill="#86888A" d="M261.9,18.6c0-2.6,0-4.9,0-7.3c0.1,0,0.2,0,0.3,0c0,1.4,0,2.8,0,4.5c1.3-0.6,1.7-1.9,3.1-2.5
		c-0.2,0.8-0.8,1.2-1.2,1.6c-0.5,0.5-0.5,0.9-0.1,1.4c0.5,0.6,1,1.3,1.6,2.1c-1.2-0.1-1.3-1.1-1.9-1.5c-0.3-0.3-0.4-0.9-1-0.6
		c-0.5,0.2-0.5,0.7-0.5,1.1C262.3,17.7,262.5,18.1,261.9,18.6z"/>
	<path fill="#8E8E8E" d="M254.8,13.2c1.4,0,2.3,1.2,2.2,2.8c-0.1,1.5-1,2.5-2.3,2.5c-1.4,0-2.3-1.1-2.3-2.7
		C252.5,14.2,253.4,13.2,254.8,13.2z M253.1,15.8c0,1.3,0.6,2.1,1.6,2.1c1,0,1.6-0.8,1.6-2.1c0-1.3-0.5-2-1.5-2
		C253.7,13.8,253.1,14.5,253.1,15.8z"/>
	<path fill="#86888A" d="M233.7,15.9c0-1.6,0.8-2.6,2.3-2.6c1.4,0,2.2,1,2.2,2.7c0,1.6-0.9,2.6-2.3,2.6
		C234.5,18.5,233.7,17.5,233.7,15.9z M237.6,15.9c0-1.3-0.6-2.1-1.6-2.1c-1.1,0-1.7,0.7-1.7,2c0,1.2,0.7,2.1,1.6,2.2
		C236.9,18.1,237.6,17.2,237.6,15.9z"/>
	<path fill="#969696" d="M233.4,13.7c-1.3,0-1.2,0.7-1.2,1.5c0,0.9,0,1.7,0,2.6c0,0.2,0,0.5-0.3,0.5c-0.4,0-0.4-0.3-0.4-0.5
		c0-1,0-1.9,0-2.9c0-0.6,0-1.2-0.9-1.4c0.7-0.3,0.9-0.7,1-1.3c0.3-1.2,1-1.5,2.3-0.8c-0.6,0.4-1.8,0-1.7,1.3
		C232.2,13.6,232.9,13.1,233.4,13.7z"/>
	<path fill="#528FF4" d="M203.6,50.5c-0.7,0.7-1.5,0.6-2.3,0.2c-0.8-0.4-0.9-1.1-0.9-1.9c0-0.8,0.2-1.6,1.1-1.9
		c0.8-0.3,1.5-0.2,2,0.5c0.3,0.4,0.4,0.8,0.2,1.2c-0.2,0.5-0.7,0.2-1,0.3c-0.1,0-0.3,0-0.4,0c-0.4,0.1-1.2-0.4-1.2,0.5
		c0,0.8,0.7,1.1,1.4,1.1C202.7,50.6,203.1,50.2,203.6,50.5z M202.1,48.6c0.3-0.3,1,0.3,1-0.5c0-0.5-0.4-0.9-1-0.8
		c-0.6,0-1.1,0.4-1,1C201.1,48.8,201.6,48.4,202.1,48.6z"/>
	<path fill="#528FF4" d="M216.3,50.5c-1.1,0.8-2.2,0.6-2.8-0.3c-0.6-1-0.4-2.6,0.5-3.2c0.8-0.5,1.8-0.3,2.3,0.6
		c0.5,1,0.3,1.4-0.9,1.4c-0.1,0-0.2,0-0.3,0c-0.5,0.2-1.3-0.4-1.3,0.5c0,0.9,0.8,1.1,1.6,1.1C215.8,50.5,216,50.3,216.3,50.5z
		 M214.9,48.5c0.4-0.2,1,0.3,1-0.4c0-0.5-0.4-0.9-0.9-0.9c-0.6,0-1.1,0.3-1.1,0.9C213.9,48.9,214.5,48.4,214.9,48.5z"/>
	<path fill="#528FF4" d="M193.6,50.9c0-1.6,0-3.3,0-4.9c0-0.1,0-0.2,0-0.3c0.8-0.6,1.6-0.3,2.3-0.1c0.8,0.2,1.1,1,0.9,1.8
		c-0.2,0.8-0.6,1.3-1.8,1c0.9-0.3,1.5-0.7,1.3-1.6c-0.2-0.7-0.8-0.8-1.5-0.9c-0.7-0.1-0.8,0.2-0.8,0.8c0,1.4,0.2,2.8-0.1,4.1
		C193.9,50.9,193.8,50.9,193.6,50.9z"/>
	<path fill="#528FF4" d="M217.9,50.9c-0.4-1.2-0.4-2.4-0.2-3.5c0.2-0.8,1.3-0.5,2.1-0.5C217.2,47.4,218.6,49.6,217.9,50.9z"/>
	<path fill="#528FF4" d="M197.8,50.9c0-1.2-0.1-2.4,0.1-3.5c0.1-0.3,1.2-0.8,2.2-0.3c-2.8,0.4-1.4,2.6-2,3.8
		C198.1,50.9,197.9,50.9,197.8,50.9z"/>
	<path fill="#86888A" d="M259,14.4c-0.6,1.2,0,2.6-0.4,3.9c-0.1,0-0.3,0-0.4,0c0-1.5,0-3.1,0-4.6c0-0.3,0.2-0.3,0.8,0.2
		C258.9,14,259,14.2,259,14.4z"/>
	<path fill="#86888A" d="M240.2,14.2c-0.9,1.3-0.1,2.8-0.6,4.1c-0.1,0-0.2,0-0.4,0c0-1.6-0.1-3.2,0.1-4.7c0-0.4,0.4,0,0.4,0.3
		c0,0.1,0,0.2,0,0.3c0,0,0,0.1-0.1,0.1c0,0,0-0.1,0.1-0.1C239.9,14.2,240.1,14.2,240.2,14.2z"/>
	<path fill="#919191" d="M259,14.4c0-0.2,0-0.4,0-0.6c0.1-0.4,0.5-0.5,0.8-0.6c0.4-0.1,0.9-0.2,1,0.2c0.1,0.5-0.5,0.3-0.8,0.3
		C259.5,13.9,259.3,14.2,259,14.4z"/>
	<path fill="#919191" d="M240.2,14.2c-0.2,0-0.3,0-0.5-0.1c0,0,0,0,0,0c0-0.1,0-0.2,0-0.3c0.6-0.4,1.3-1,2.3-0.2
		C241.4,13.9,240.7,13.7,240.2,14.2z"/>
	<path fill="#528FF4" d="M211.9,47c0,1.2,0,2.4,0,3.6c-0.1,0-0.1,0-0.2,0c0-1.2,0-2.4,0-3.6C211.8,47,211.9,47,211.9,47z"/>
	<path fill="#FCFCFC" d="M195,28.5c0-1.1,0-2.3,0-3.4c0-0.7,0.3-0.9,0.9-0.9c1.4,0,2.9,0,4.3,0.2c2.1,0.4,3.3,1.7,3.4,3.9
		c0.1,2.3-0.9,3.7-3.1,4.3c-1.6,0.4-3.2,0.3-4.8,0.3c-0.6,0-0.7-0.3-0.7-0.8C195,30.8,195,29.6,195,28.5z"/>
	<path fill="#FDFDFE" d="M256.8,33.8c-1.1,0-2.3,0-3.4,0c-0.4,0-0.8,0-0.7-0.6c0.3-1.7,0.9-3.3,2.6-4.1c2.9-1.3,6,0.8,5.8,4
		c0,0.6-0.3,0.7-0.8,0.7C259.1,33.8,257.9,33.8,256.8,33.8z"/>
	<path fill="#FCFCFC" d="M214.1,35.9c-0.1,3.6-2.9,5.7-6,4.7c-1.1-0.4-1.7-1.2-1.8-2.3c-0.1-1.1,0.3-2.1,1.3-2.6c1.9-1,4-0.9,6-0.9
		C214.5,34.8,213.9,35.6,214.1,35.9z"/>
	<path fill="#F8F8F8" d="M217.4,21.3c-0.9-0.1-1.8-0.2-1.8-1.4c0-1.1,1-1.2,1.8-1.3c0.9,0,1.7,0.5,1.7,1.4
		C219.2,21.1,218.3,21.2,217.4,21.3z"/>
	<path fill="#F8F8F8" d="M216.2,14.7c0-0.7,0.2-1.2,1-1.3c0.7-0.1,1.5,1,1.5,2c0,0.7-0.3,1.2-1.1,1.2
		C216.8,16.6,216.2,15.7,216.2,14.7z"/>
	<path fill="#FCFCFC" d="M205.3,13.5c1,0.1,1.3,1,1.5,2c0.2,0.9,0.2,1.8-0.7,2.4c-0.4,0.2-0.8,0.2-1.2,0c-1-0.5-1.7-2.7-1-3.7
		C204.1,13.7,204.5,13.5,205.3,13.5z"/>
	<path fill="#FCFCFC" d="M209.9,15.5c0-1.3,0.5-2,1.5-2c1,0,1.8,1.2,1.8,2.7c0,1-0.4,1.7-1.5,1.8C210.7,18.1,209.9,16.8,209.9,15.5z
		"/>
	<path fill="#F3F3F3" d="M224.2,15.4c-0.1-1.5,0.7-2.3,1.7-1.8c0.3,0.1,0.5,0.3,0.5,0.7c0,0.3-0.3,0.4-0.5,0.5
		C225.4,15,224.8,15.2,224.2,15.4z"/>
	<path fill="#FCFCFC" d="M253.1,15.8c0-1.3,0.6-2.1,1.7-2c1,0,1.5,0.8,1.5,2c0,1.3-0.6,2.1-1.6,2.1C253.7,18,253.1,17.2,253.1,15.8z
		"/>
	<path fill="#FCFCFC" d="M237.6,15.9c0,1.3-0.7,2.1-1.7,2.1c-1,0-1.6-0.9-1.6-2.2c0-1.3,0.7-2.1,1.7-2
		C237.1,13.9,237.7,14.7,237.6,15.9z"/>
	<path fill="#FCFCFC" d="M202.1,48.6c-0.4-0.1-1,0.2-1-0.4c0-0.6,0.5-0.9,1-1c0.6,0,1,0.3,1,0.8C203.1,48.9,202.3,48.3,202.1,48.6z"
		/>
	<path fill="#FCFCFC" d="M214.9,48.5c-0.3-0.2-1,0.3-1-0.4c0-0.6,0.5-0.9,1.1-0.9c0.5,0,1,0.4,0.9,0.9
		C215.9,48.8,215.2,48.4,214.9,48.5z"/>
	<path fill="#919191" d="M239.8,14.1c0,0,0,0.1-0.1,0.1C239.8,14.2,239.8,14.2,239.8,14.1C239.8,14.1,239.8,14.1,239.8,14.1z"/>
</g>
</svg>
