<?xml version="1.0" encoding="UTF-8" standalone="no"?>
<svg width="17px" height="16px" viewBox="0 0 17 16" version="1.1" xmlns="http://www.w3.org/2000/svg" xmlns:xlink="http://www.w3.org/1999/xlink" xmlns:sketch="http://www.bohemiancoding.com/sketch/ns">
    <!-- Generator: bin/sketchtool 1.4 (305) - http://www.bohemiancoding.com/sketch -->
    <title>heart</title>
    <desc>Created with bin/sketchtool.</desc>
    <defs></defs>
    <g id="SM1" stroke="none" stroke-width="1" fill="none" fill-rule="evenodd" sketch:type="MSPage">
        <g id="Buy-&gt;-Plans-(Basic-disabled)-(SM1)" sketch:type="MSArtboardGroup" transform="translate(-577.000000, -416.000000)">
            <g id="Plan---Pro" sketch:type="MSLayerGroup" transform="translate(489.500000, 408.000000)">
                <g id="heart" transform="translate(85.000000, 4.000000)" sketch:type="MSShapeGroup">
                    <path d="M15.125,19.25 C13.2916667,19.25 11.6416667,18.0583333 11,16.5 C10.3583333,18.0583333 8.70833333,19.25 6.875,19.25 C4.58333333,19.25 2.75,17.5083333 2.75,15.125 C2.75,11.9166667 5.95833333,9.16666667 11,4.58333333 C16.0416667,9.16666667 19.25,11.9166667 19.25,15.125 C19.25,17.5083333 17.4166667,19.25 15.125,19.25 L15.125,19.25 Z" id="Shape" fill-opacity="0.54" fill="#000000" transform="translate(11.000000, 11.916667) scale(1, -1) translate(-11.000000, -11.916667) "></path>
                    <path d="M22,0 L0,0 L0,22 L22,22 L22,0 Z" id="bounds" transform="translate(11.000000, 11.000000) scale(1, -1) translate(-11.000000, -11.000000) "></path>
                </g>
            </g>
        </g>
    </g>
</svg>